<?xml version="1.0" encoding="utf-8"?>
<!-- Generator: Adobe Illustrator 16.0.3, SVG Export Plug-In . SVG Version: 6.00 Build 0)  -->
<!DOCTYPE svg PUBLIC "-//W3C//DTD SVG 1.1//EN" "http://www.w3.org/Graphics/SVG/1.1/DTD/svg11.dtd">
<svg version="1.1" id="Ebene_1" xmlns="http://www.w3.org/2000/svg" xmlns:xlink="http://www.w3.org/1999/xlink" x="0px" y="0px"
	 width="595.28px" height="226.77px" viewBox="0 0 595.28 226.77" enable-background="new 0 0 595.28 226.77" xml:space="preserve">
<g>
	<polygon fill="#005CA9" points="264.444,177.573 300.698,177.573 319.361,138.995 333.432,168.083 350.022,175.624 
		323.782,121.281 323.758,121.329 323.735,121.281 297.494,175.624 265.402,175.624 265.387,175.624 	"/>
	<path fill="#005CA9" d="M550.777,146.613h-0.045l-16.593-7.543h-52.945l-6.018-12.443h24.278l14.808-30.795h-0.047l-17.524-7.969
		h20.603h0.264l14.924-30.796h-0.047l-16.593-7.542H369.818l2.85,5.858l-12.433-5.737h-28.849v4.418l-9.82-4.48h-28.849v4.394
		l-9.679-4.394h-32.045l-19.793,40.914l-16.144-33.372h-0.047l-16.592-7.542h-32.046l2.734,5.653l-12.417-5.644l-28.849-0.009
		l-1.707,3.531l-7.741-3.531H29.056L86.329,167.98l16.593,7.541L45.648,57.125h87.121l-13.955,28.849H89.434l43.315,89.548h-29.78
		l0.942,1.949h32.042l-4.576-9.461l13.057,7.503l-28.633-59.19l28.633-59.197h0.047v0.001l26.587,0.008l13.357,27.614l15.275,31.574
		l-28.633,59.199l-26.586-0.009l0.942,1.947l28.848,0.011l26.981-55.785l9.029,18.664v27.736l16.591,7.542v-27.736l-43.907-90.767
		h29.829l27.462,56.663l27.33-56.663h29.828L253.507,147.9v27.728h-26.618v1.947h29.823v-8.722l8.69,6.771l43.906-90.773V57.125
		h26.635v27.73l43.908,90.769h-29.78l0.942,1.949h32.043l-4.541-9.386l13.292,7.505l-18.664-38.429l-25.16-52.013h-0.004v-0.01
		V57.188h26.632v21.443l32.901,68.121h2.214h0.049h31.385l13.952,28.94h-63.261l0.944,1.947h65.523l-4.668-9.679l13.06,7.501
		l-43.396-89.714h-22.908l0.947,1.947l9.958,0.001l27.537,56.924l-12.066-5.411h-20.651l-29.323-60.68l0.045-14.547l6.919,14.223
		l16.593,7.542L386.41,57.066h143.809l-13.954,28.682h-63.042h-0.064l29.42,60.865h2.217h0.047h63.674l13.955,28.849h-95.713
		l0.943,1.947h97.976L550.777,146.613z M100.969,105.143l-8.331-17.222h16.661L100.969,105.143z M512.001,95.832l-13.956,28.846
		h-19.072l-13.961-28.846H512.001z"/>
	<polygon fill="#005CA9" points="158.859,93.556 147.762,116.238 158.858,139.09 169.871,116.322 	"/>
</g>
</svg>
